<svg width="109" height="47" viewBox="0 0 109 47" fill="none" xmlns="http://www.w3.org/2000/svg">
<rect x="1" y="1" width="107" height="45" rx="22.5" stroke="#3D00B7" stroke-width="2"/>
<mask id="path-2-outside-1_23_183" maskUnits="userSpaceOnUse" x="20" y="18" width="68" height="12" fill="black">
<rect fill="white" x="20" y="18" width="68" height="12"/>
<path d="M20.98 29V18.92H24.872C24.97 18.92 25.0797 18.9247 25.201 18.934C25.327 18.9387 25.453 18.9527 25.579 18.976C26.1063 19.0553 26.552 19.2397 26.916 19.529C27.2847 19.8137 27.5623 20.173 27.749 20.607C27.9403 21.041 28.036 21.5217 28.036 22.049C28.036 22.5717 27.9403 23.05 27.749 23.484C27.5577 23.918 27.2777 24.2797 26.909 24.569C26.545 24.8537 26.1017 25.0357 25.579 25.115C25.453 25.1337 25.327 25.1477 25.201 25.157C25.0797 25.1663 24.97 25.171 24.872 25.171H22.009V29H20.98ZM22.009 24.191H24.844C24.928 24.191 25.026 24.1863 25.138 24.177C25.25 24.1677 25.3597 24.1513 25.467 24.128C25.8123 24.0533 26.0947 23.911 26.314 23.701C26.538 23.491 26.7037 23.2413 26.811 22.952C26.923 22.6627 26.979 22.3617 26.979 22.049C26.979 21.7363 26.923 21.4353 26.811 21.146C26.7037 20.852 26.538 20.6 26.314 20.39C26.0947 20.18 25.8123 20.0377 25.467 19.963C25.3597 19.9397 25.25 19.9257 25.138 19.921C25.026 19.9117 24.928 19.907 24.844 19.907H22.009V24.191ZM29.5692 29V18.71H30.5982V29H29.5692ZM34.8598 29.21C34.2905 29.21 33.8121 29.1073 33.4248 28.902C33.0421 28.6967 32.7551 28.4237 32.5638 28.083C32.3725 27.7423 32.2768 27.3713 32.2768 26.97C32.2768 26.5593 32.3585 26.2093 32.5218 25.92C32.6898 25.626 32.9161 25.3857 33.2008 25.199C33.4901 25.0123 33.8238 24.87 34.2018 24.772C34.5845 24.6787 35.0068 24.597 35.4688 24.527C35.9355 24.4523 36.3905 24.3893 36.8338 24.338C37.2818 24.282 37.6738 24.2283 38.0098 24.177L37.6458 24.401C37.6598 23.6543 37.5151 23.1013 37.2118 22.742C36.9085 22.3827 36.3811 22.203 35.6298 22.203C35.1118 22.203 34.6731 22.3197 34.3138 22.553C33.9591 22.7863 33.7095 23.155 33.5648 23.659L32.5638 23.365C32.7365 22.6883 33.0841 22.1633 33.6068 21.79C34.1295 21.4167 34.8085 21.23 35.6438 21.23C36.3345 21.23 36.9201 21.3607 37.4008 21.622C37.8861 21.8787 38.2291 22.252 38.4298 22.742C38.5231 22.9613 38.5838 23.2063 38.6118 23.477C38.6398 23.7477 38.6538 24.023 38.6538 24.303V29H37.7368V27.103L38.0028 27.215C37.7461 27.8637 37.3471 28.3583 36.8058 28.699C36.2645 29.0397 35.6158 29.21 34.8598 29.21ZM34.9788 28.321C35.4595 28.321 35.8795 28.2347 36.2388 28.062C36.5981 27.8893 36.8875 27.6537 37.1068 27.355C37.3261 27.0517 37.4685 26.711 37.5338 26.333C37.5898 26.0903 37.6201 25.8243 37.6248 25.535C37.6295 25.241 37.6318 25.0217 37.6318 24.877L38.0238 25.08C37.6738 25.1267 37.2935 25.1733 36.8828 25.22C36.4768 25.2667 36.0755 25.3203 35.6788 25.381C35.2868 25.4417 34.9321 25.514 34.6148 25.598C34.4001 25.6587 34.1925 25.745 33.9918 25.857C33.7911 25.9643 33.6255 26.109 33.4948 26.291C33.3688 26.473 33.3058 26.6993 33.3058 26.97C33.3058 27.1893 33.3595 27.4017 33.4668 27.607C33.5788 27.8123 33.7561 27.9827 33.9988 28.118C34.2461 28.2533 34.5728 28.321 34.9788 28.321ZM43.6121 29.21C42.8514 29.21 42.2074 29.0397 41.6801 28.699C41.1528 28.3583 40.7514 27.8893 40.4761 27.292C40.2054 26.69 40.0654 25.9993 40.0561 25.22C40.0654 24.4267 40.2101 23.7313 40.4901 23.134C40.7701 22.532 41.1738 22.0653 41.7011 21.734C42.2284 21.398 42.8678 21.23 43.6191 21.23C44.3844 21.23 45.0494 21.4167 45.6141 21.79C46.1834 22.1633 46.5731 22.6743 46.7831 23.323L45.7751 23.645C45.5978 23.1923 45.3154 22.8423 44.9281 22.595C44.5454 22.343 44.1068 22.217 43.6121 22.217C43.0568 22.217 42.5971 22.3453 42.2331 22.602C41.8691 22.854 41.5984 23.2063 41.4211 23.659C41.2438 24.1117 41.1528 24.632 41.1481 25.22C41.1574 26.1253 41.3674 26.8533 41.7781 27.404C42.1888 27.95 42.8001 28.223 43.6121 28.223C44.1254 28.223 44.5618 28.1063 44.9211 27.873C45.2851 27.635 45.5604 27.2897 45.7471 26.837L46.7831 27.145C46.5031 27.817 46.0924 28.3303 45.5511 28.685C45.0098 29.035 44.3634 29.21 43.6121 29.21ZM51.222 29.21C50.4846 29.21 49.8453 29.0467 49.304 28.72C48.7673 28.3933 48.3496 27.9337 48.051 27.341C47.7523 26.7483 47.603 26.053 47.603 25.255C47.603 24.429 47.75 23.715 48.044 23.113C48.338 22.511 48.751 22.0467 49.283 21.72C49.8196 21.3933 50.452 21.23 51.18 21.23C51.9266 21.23 52.5636 21.4027 53.091 21.748C53.6183 22.0887 54.0173 22.5787 54.288 23.218C54.5586 23.8573 54.6823 24.6203 54.659 25.507H53.609V25.143C53.5903 24.163 53.378 23.4233 52.972 22.924C52.5706 22.4247 51.9826 22.175 51.208 22.175C50.396 22.175 49.773 22.4387 49.339 22.966C48.9096 23.4933 48.695 24.2447 48.695 25.22C48.695 26.172 48.9096 26.9117 49.339 27.439C49.773 27.9617 50.3866 28.223 51.18 28.223C51.7213 28.223 52.1926 28.0993 52.594 27.852C53 27.6 53.3196 27.2383 53.553 26.767L54.512 27.138C54.2133 27.796 53.7723 28.307 53.189 28.671C52.6103 29.0303 51.9546 29.21 51.222 29.21ZM48.331 25.507V24.646H54.106V25.507H48.331ZM61.1782 29.21C60.6088 29.21 60.1305 29.1073 59.7432 28.902C59.3605 28.6967 59.0735 28.4237 58.8822 28.083C58.6908 27.7423 58.5952 27.3713 58.5952 26.97C58.5952 26.5593 58.6768 26.2093 58.8402 25.92C59.0082 25.626 59.2345 25.3857 59.5192 25.199C59.8085 25.0123 60.1422 24.87 60.5202 24.772C60.9028 24.6787 61.3252 24.597 61.7872 24.527C62.2538 24.4523 62.7088 24.3893 63.1522 24.338C63.6002 24.282 63.9922 24.2283 64.3282 24.177L63.9642 24.401C63.9782 23.6543 63.8335 23.1013 63.5302 22.742C63.2268 22.3827 62.6995 22.203 61.9482 22.203C61.4302 22.203 60.9915 22.3197 60.6322 22.553C60.2775 22.7863 60.0278 23.155 59.8832 23.659L58.8822 23.365C59.0548 22.6883 59.4025 22.1633 59.9252 21.79C60.4478 21.4167 61.1268 21.23 61.9622 21.23C62.6528 21.23 63.2385 21.3607 63.7192 21.622C64.2045 21.8787 64.5475 22.252 64.7482 22.742C64.8415 22.9613 64.9022 23.2063 64.9302 23.477C64.9582 23.7477 64.9722 24.023 64.9722 24.303V29H64.0552V27.103L64.3212 27.215C64.0645 27.8637 63.6655 28.3583 63.1242 28.699C62.5828 29.0397 61.9342 29.21 61.1782 29.21ZM61.2972 28.321C61.7778 28.321 62.1978 28.2347 62.5572 28.062C62.9165 27.8893 63.2058 27.6537 63.4252 27.355C63.6445 27.0517 63.7868 26.711 63.8522 26.333C63.9082 26.0903 63.9385 25.8243 63.9432 25.535C63.9478 25.241 63.9502 25.0217 63.9502 24.877L64.3422 25.08C63.9922 25.1267 63.6118 25.1733 63.2012 25.22C62.7952 25.2667 62.3938 25.3203 61.9972 25.381C61.6052 25.4417 61.2505 25.514 60.9332 25.598C60.7185 25.6587 60.5108 25.745 60.3102 25.857C60.1095 25.9643 59.9438 26.109 59.8132 26.291C59.6872 26.473 59.6242 26.6993 59.6242 26.97C59.6242 27.1893 59.6778 27.4017 59.7852 27.607C59.8972 27.8123 60.0745 27.9827 60.3172 28.118C60.5645 28.2533 60.8912 28.321 61.2972 28.321ZM72.9922 29.21C72.2969 29.21 71.7089 29.035 71.2282 28.685C70.7475 28.3303 70.3835 27.852 70.1362 27.25C69.8889 26.6433 69.7652 25.9643 69.7652 25.213C69.7652 24.4477 69.8889 23.7663 70.1362 23.169C70.3882 22.567 70.7569 22.0933 71.2422 21.748C71.7275 21.4027 72.3249 21.23 73.0342 21.23C73.7249 21.23 74.3175 21.405 74.8122 21.755C75.3069 22.105 75.6849 22.581 75.9462 23.183C76.2122 23.785 76.3452 24.4617 76.3452 25.213C76.3452 25.969 76.2122 26.648 75.9462 27.25C75.6802 27.852 75.2975 28.3303 74.7982 28.685C74.2989 29.035 73.6969 29.21 72.9922 29.21ZM69.5902 29V18.92H70.6262V23.309H70.5142V29H69.5902ZM72.8872 28.251C73.4145 28.251 73.8532 28.118 74.2032 27.852C74.5532 27.586 74.8145 27.2243 74.9872 26.767C75.1645 26.305 75.2532 25.787 75.2532 25.213C75.2532 24.6437 75.1669 24.1303 74.9942 23.673C74.8215 23.2157 74.5579 22.854 74.2032 22.588C73.8532 22.322 73.4075 22.189 72.8662 22.189C72.3389 22.189 71.9002 22.3173 71.5502 22.574C71.2049 22.8307 70.9459 23.1877 70.7732 23.645C70.6005 24.0977 70.5142 24.6203 70.5142 25.213C70.5142 25.7963 70.6005 26.319 70.7732 26.781C70.9459 27.2383 71.2072 27.5977 71.5572 27.859C71.9072 28.1203 72.3505 28.251 72.8872 28.251ZM78.0223 20.005V18.85H79.0513V20.005H78.0223ZM78.0223 29V21.44H79.0513V29H78.0223ZM84.0829 29.21C83.3783 29.21 82.7763 29.035 82.2769 28.685C81.7776 28.3303 81.3949 27.852 81.1289 27.25C80.8629 26.648 80.7299 25.969 80.7299 25.213C80.7299 24.4617 80.8606 23.785 81.1219 23.183C81.3879 22.581 81.7683 22.105 82.2629 21.755C82.7576 21.405 83.3503 21.23 84.0409 21.23C84.7503 21.23 85.3476 21.4027 85.8329 21.748C86.3183 22.0933 86.6846 22.567 86.9319 23.169C87.1839 23.7663 87.3099 24.4477 87.3099 25.213C87.3099 25.9643 87.1863 26.6433 86.9389 27.25C86.6916 27.852 86.3276 28.3303 85.8469 28.685C85.3663 29.035 84.7783 29.21 84.0829 29.21ZM84.1879 28.251C84.7246 28.251 85.1679 28.1203 85.5179 27.859C85.8679 27.5977 86.1293 27.2383 86.3019 26.781C86.4746 26.319 86.5609 25.7963 86.5609 25.213C86.5609 24.6203 86.4746 24.0977 86.3019 23.645C86.1293 23.1877 85.8679 22.8307 85.5179 22.574C85.1726 22.3173 84.7363 22.189 84.2089 22.189C83.6676 22.189 83.2196 22.322 82.8649 22.588C82.5103 22.854 82.2466 23.2157 82.0739 23.673C81.9059 24.1303 81.8219 24.6437 81.8219 25.213C81.8219 25.787 81.9083 26.305 82.0809 26.767C82.2583 27.2243 82.5219 27.586 82.8719 27.852C83.2219 28.118 83.6606 28.251 84.1879 28.251ZM86.5609 29V23.309H86.4489V18.92H87.4849V29H86.5609Z"/>
</mask>
<path d="M20.98 29V18.92H24.872C24.97 18.92 25.0797 18.9247 25.201 18.934C25.327 18.9387 25.453 18.9527 25.579 18.976C26.1063 19.0553 26.552 19.2397 26.916 19.529C27.2847 19.8137 27.5623 20.173 27.749 20.607C27.9403 21.041 28.036 21.5217 28.036 22.049C28.036 22.5717 27.9403 23.05 27.749 23.484C27.5577 23.918 27.2777 24.2797 26.909 24.569C26.545 24.8537 26.1017 25.0357 25.579 25.115C25.453 25.1337 25.327 25.1477 25.201 25.157C25.0797 25.1663 24.97 25.171 24.872 25.171H22.009V29H20.98ZM22.009 24.191H24.844C24.928 24.191 25.026 24.1863 25.138 24.177C25.25 24.1677 25.3597 24.1513 25.467 24.128C25.8123 24.0533 26.0947 23.911 26.314 23.701C26.538 23.491 26.7037 23.2413 26.811 22.952C26.923 22.6627 26.979 22.3617 26.979 22.049C26.979 21.7363 26.923 21.4353 26.811 21.146C26.7037 20.852 26.538 20.6 26.314 20.39C26.0947 20.18 25.8123 20.0377 25.467 19.963C25.3597 19.9397 25.25 19.9257 25.138 19.921C25.026 19.9117 24.928 19.907 24.844 19.907H22.009V24.191ZM29.5692 29V18.71H30.5982V29H29.5692ZM34.8598 29.21C34.2905 29.21 33.8121 29.1073 33.4248 28.902C33.0421 28.6967 32.7551 28.4237 32.5638 28.083C32.3725 27.7423 32.2768 27.3713 32.2768 26.97C32.2768 26.5593 32.3585 26.2093 32.5218 25.92C32.6898 25.626 32.9161 25.3857 33.2008 25.199C33.4901 25.0123 33.8238 24.87 34.2018 24.772C34.5845 24.6787 35.0068 24.597 35.4688 24.527C35.9355 24.4523 36.3905 24.3893 36.8338 24.338C37.2818 24.282 37.6738 24.2283 38.0098 24.177L37.6458 24.401C37.6598 23.6543 37.5151 23.1013 37.2118 22.742C36.9085 22.3827 36.3811 22.203 35.6298 22.203C35.1118 22.203 34.6731 22.3197 34.3138 22.553C33.9591 22.7863 33.7095 23.155 33.5648 23.659L32.5638 23.365C32.7365 22.6883 33.0841 22.1633 33.6068 21.79C34.1295 21.4167 34.8085 21.23 35.6438 21.23C36.3345 21.23 36.9201 21.3607 37.4008 21.622C37.8861 21.8787 38.2291 22.252 38.4298 22.742C38.5231 22.9613 38.5838 23.2063 38.6118 23.477C38.6398 23.7477 38.6538 24.023 38.6538 24.303V29H37.7368V27.103L38.0028 27.215C37.7461 27.8637 37.3471 28.3583 36.8058 28.699C36.2645 29.0397 35.6158 29.21 34.8598 29.21ZM34.9788 28.321C35.4595 28.321 35.8795 28.2347 36.2388 28.062C36.5981 27.8893 36.8875 27.6537 37.1068 27.355C37.3261 27.0517 37.4685 26.711 37.5338 26.333C37.5898 26.0903 37.6201 25.8243 37.6248 25.535C37.6295 25.241 37.6318 25.0217 37.6318 24.877L38.0238 25.08C37.6738 25.1267 37.2935 25.1733 36.8828 25.22C36.4768 25.2667 36.0755 25.3203 35.6788 25.381C35.2868 25.4417 34.9321 25.514 34.6148 25.598C34.4001 25.6587 34.1925 25.745 33.9918 25.857C33.7911 25.9643 33.6255 26.109 33.4948 26.291C33.3688 26.473 33.3058 26.6993 33.3058 26.97C33.3058 27.1893 33.3595 27.4017 33.4668 27.607C33.5788 27.8123 33.7561 27.9827 33.9988 28.118C34.2461 28.2533 34.5728 28.321 34.9788 28.321ZM43.6121 29.21C42.8514 29.21 42.2074 29.0397 41.6801 28.699C41.1528 28.3583 40.7514 27.8893 40.4761 27.292C40.2054 26.69 40.0654 25.9993 40.0561 25.22C40.0654 24.4267 40.2101 23.7313 40.4901 23.134C40.7701 22.532 41.1738 22.0653 41.7011 21.734C42.2284 21.398 42.8678 21.23 43.6191 21.23C44.3844 21.23 45.0494 21.4167 45.6141 21.79C46.1834 22.1633 46.5731 22.6743 46.7831 23.323L45.7751 23.645C45.5978 23.1923 45.3154 22.8423 44.9281 22.595C44.5454 22.343 44.1068 22.217 43.6121 22.217C43.0568 22.217 42.5971 22.3453 42.2331 22.602C41.8691 22.854 41.5984 23.2063 41.4211 23.659C41.2438 24.1117 41.1528 24.632 41.1481 25.22C41.1574 26.1253 41.3674 26.8533 41.7781 27.404C42.1888 27.95 42.8001 28.223 43.6121 28.223C44.1254 28.223 44.5618 28.1063 44.9211 27.873C45.2851 27.635 45.5604 27.2897 45.7471 26.837L46.7831 27.145C46.5031 27.817 46.0924 28.3303 45.5511 28.685C45.0098 29.035 44.3634 29.21 43.6121 29.21ZM51.222 29.21C50.4846 29.21 49.8453 29.0467 49.304 28.72C48.7673 28.3933 48.3496 27.9337 48.051 27.341C47.7523 26.7483 47.603 26.053 47.603 25.255C47.603 24.429 47.75 23.715 48.044 23.113C48.338 22.511 48.751 22.0467 49.283 21.72C49.8196 21.3933 50.452 21.23 51.18 21.23C51.9266 21.23 52.5636 21.4027 53.091 21.748C53.6183 22.0887 54.0173 22.5787 54.288 23.218C54.5586 23.8573 54.6823 24.6203 54.659 25.507H53.609V25.143C53.5903 24.163 53.378 23.4233 52.972 22.924C52.5706 22.4247 51.9826 22.175 51.208 22.175C50.396 22.175 49.773 22.4387 49.339 22.966C48.9096 23.4933 48.695 24.2447 48.695 25.22C48.695 26.172 48.9096 26.9117 49.339 27.439C49.773 27.9617 50.3866 28.223 51.18 28.223C51.7213 28.223 52.1926 28.0993 52.594 27.852C53 27.6 53.3196 27.2383 53.553 26.767L54.512 27.138C54.2133 27.796 53.7723 28.307 53.189 28.671C52.6103 29.0303 51.9546 29.21 51.222 29.21ZM48.331 25.507V24.646H54.106V25.507H48.331ZM61.1782 29.21C60.6088 29.21 60.1305 29.1073 59.7432 28.902C59.3605 28.6967 59.0735 28.4237 58.8822 28.083C58.6908 27.7423 58.5952 27.3713 58.5952 26.97C58.5952 26.5593 58.6768 26.2093 58.8402 25.92C59.0082 25.626 59.2345 25.3857 59.5192 25.199C59.8085 25.0123 60.1422 24.87 60.5202 24.772C60.9028 24.6787 61.3252 24.597 61.7872 24.527C62.2538 24.4523 62.7088 24.3893 63.1522 24.338C63.6002 24.282 63.9922 24.2283 64.3282 24.177L63.9642 24.401C63.9782 23.6543 63.8335 23.1013 63.5302 22.742C63.2268 22.3827 62.6995 22.203 61.9482 22.203C61.4302 22.203 60.9915 22.3197 60.6322 22.553C60.2775 22.7863 60.0278 23.155 59.8832 23.659L58.8822 23.365C59.0548 22.6883 59.4025 22.1633 59.9252 21.79C60.4478 21.4167 61.1268 21.23 61.9622 21.23C62.6528 21.23 63.2385 21.3607 63.7192 21.622C64.2045 21.8787 64.5475 22.252 64.7482 22.742C64.8415 22.9613 64.9022 23.2063 64.9302 23.477C64.9582 23.7477 64.9722 24.023 64.9722 24.303V29H64.0552V27.103L64.3212 27.215C64.0645 27.8637 63.6655 28.3583 63.1242 28.699C62.5828 29.0397 61.9342 29.21 61.1782 29.21ZM61.2972 28.321C61.7778 28.321 62.1978 28.2347 62.5572 28.062C62.9165 27.8893 63.2058 27.6537 63.4252 27.355C63.6445 27.0517 63.7868 26.711 63.8522 26.333C63.9082 26.0903 63.9385 25.8243 63.9432 25.535C63.9478 25.241 63.9502 25.0217 63.9502 24.877L64.3422 25.08C63.9922 25.1267 63.6118 25.1733 63.2012 25.22C62.7952 25.2667 62.3938 25.3203 61.9972 25.381C61.6052 25.4417 61.2505 25.514 60.9332 25.598C60.7185 25.6587 60.5108 25.745 60.3102 25.857C60.1095 25.9643 59.9438 26.109 59.8132 26.291C59.6872 26.473 59.6242 26.6993 59.6242 26.97C59.6242 27.1893 59.6778 27.4017 59.7852 27.607C59.8972 27.8123 60.0745 27.9827 60.3172 28.118C60.5645 28.2533 60.8912 28.321 61.2972 28.321ZM72.9922 29.21C72.2969 29.21 71.7089 29.035 71.2282 28.685C70.7475 28.3303 70.3835 27.852 70.1362 27.25C69.8889 26.6433 69.7652 25.9643 69.7652 25.213C69.7652 24.4477 69.8889 23.7663 70.1362 23.169C70.3882 22.567 70.7569 22.0933 71.2422 21.748C71.7275 21.4027 72.3249 21.23 73.0342 21.23C73.7249 21.23 74.3175 21.405 74.8122 21.755C75.3069 22.105 75.6849 22.581 75.9462 23.183C76.2122 23.785 76.3452 24.4617 76.3452 25.213C76.3452 25.969 76.2122 26.648 75.9462 27.25C75.6802 27.852 75.2975 28.3303 74.7982 28.685C74.2989 29.035 73.6969 29.21 72.9922 29.21ZM69.5902 29V18.92H70.6262V23.309H70.5142V29H69.5902ZM72.8872 28.251C73.4145 28.251 73.8532 28.118 74.2032 27.852C74.5532 27.586 74.8145 27.2243 74.9872 26.767C75.1645 26.305 75.2532 25.787 75.2532 25.213C75.2532 24.6437 75.1669 24.1303 74.9942 23.673C74.8215 23.2157 74.5579 22.854 74.2032 22.588C73.8532 22.322 73.4075 22.189 72.8662 22.189C72.3389 22.189 71.9002 22.3173 71.5502 22.574C71.2049 22.8307 70.9459 23.1877 70.7732 23.645C70.6005 24.0977 70.5142 24.6203 70.5142 25.213C70.5142 25.7963 70.6005 26.319 70.7732 26.781C70.9459 27.2383 71.2072 27.5977 71.5572 27.859C71.9072 28.1203 72.3505 28.251 72.8872 28.251ZM78.0223 20.005V18.85H79.0513V20.005H78.0223ZM78.0223 29V21.44H79.0513V29H78.0223ZM84.0829 29.21C83.3783 29.21 82.7763 29.035 82.2769 28.685C81.7776 28.3303 81.3949 27.852 81.1289 27.25C80.8629 26.648 80.7299 25.969 80.7299 25.213C80.7299 24.4617 80.8606 23.785 81.1219 23.183C81.3879 22.581 81.7683 22.105 82.2629 21.755C82.7576 21.405 83.3503 21.23 84.0409 21.23C84.7503 21.23 85.3476 21.4027 85.8329 21.748C86.3183 22.0933 86.6846 22.567 86.9319 23.169C87.1839 23.7663 87.3099 24.4477 87.3099 25.213C87.3099 25.9643 87.1863 26.6433 86.9389 27.25C86.6916 27.852 86.3276 28.3303 85.8469 28.685C85.3663 29.035 84.7783 29.21 84.0829 29.21ZM84.1879 28.251C84.7246 28.251 85.1679 28.1203 85.5179 27.859C85.8679 27.5977 86.1293 27.2383 86.3019 26.781C86.4746 26.319 86.5609 25.7963 86.5609 25.213C86.5609 24.6203 86.4746 24.0977 86.3019 23.645C86.1293 23.1877 85.8679 22.8307 85.5179 22.574C85.1726 22.3173 84.7363 22.189 84.2089 22.189C83.6676 22.189 83.2196 22.322 82.8649 22.588C82.5103 22.854 82.2466 23.2157 82.0739 23.673C81.9059 24.1303 81.8219 24.6437 81.8219 25.213C81.8219 25.787 81.9083 26.305 82.0809 26.767C82.2583 27.2243 82.5219 27.586 82.8719 27.852C83.2219 28.118 83.6606 28.251 84.1879 28.251ZM86.5609 29V23.309H86.4489V18.92H87.4849V29H86.5609Z" fill="#220970"/>
<path d="M20.98 29H20.78V29.2H20.98V29ZM20.98 18.92V18.72H20.78V18.92H20.98ZM25.201 18.934L25.1856 19.1336L25.1936 19.1339L25.201 18.934ZM25.579 18.976L25.5426 19.1728L25.5492 19.1738L25.579 18.976ZM26.916 19.529L26.7915 19.6856L26.7938 19.6873L26.916 19.529ZM27.749 20.607L27.5653 20.686L27.566 20.6877L27.749 20.607ZM27.749 23.484L27.566 23.4033H27.566L27.749 23.484ZM26.909 24.569L27.0322 24.7265L27.0325 24.7263L26.909 24.569ZM25.579 25.115L25.6083 25.3128L25.609 25.3127L25.579 25.115ZM25.201 25.157L25.1862 24.9575L25.1857 24.9576L25.201 25.157ZM22.009 25.171V24.971H21.809V25.171H22.009ZM22.009 29V29.2H22.209V29H22.009ZM22.009 24.191H21.809V24.391H22.009V24.191ZM25.138 24.177L25.1546 24.3763H25.1546L25.138 24.177ZM25.467 24.128L25.4247 23.9325L25.4245 23.9326L25.467 24.128ZM26.314 23.701L26.1772 23.5551L26.1757 23.5565L26.314 23.701ZM26.811 22.952L26.6245 22.8798L26.6235 22.8824L26.811 22.952ZM26.811 21.146L26.6231 21.2146L26.6245 21.2182L26.811 21.146ZM26.314 20.39L26.1757 20.5345L26.1772 20.5359L26.314 20.39ZM25.467 19.963L25.4245 20.1584L25.4247 20.1585L25.467 19.963ZM25.138 19.921L25.1214 20.1205L25.1297 20.1208L25.138 19.921ZM22.009 19.907V19.707H21.809V19.907H22.009ZM21.18 29V18.92H20.78V29H21.18ZM20.98 19.12H24.872V18.72H20.98V19.12ZM24.872 19.12C24.9638 19.12 25.0683 19.1244 25.1857 19.1334L25.2163 18.7346C25.0911 18.725 24.9762 18.72 24.872 18.72V19.12ZM25.1936 19.1339C25.3097 19.1382 25.426 19.1511 25.5426 19.1727L25.6154 18.7793C25.48 18.7543 25.3443 18.7392 25.2084 18.7341L25.1936 19.1339ZM25.5492 19.1738C26.0471 19.2487 26.4588 19.4211 26.7916 19.6856L27.0404 19.3724C26.6452 19.0583 26.1656 18.862 25.6088 18.7782L25.5492 19.1738ZM26.7938 19.6873C27.1351 19.9509 27.3918 20.2828 27.5653 20.686L27.9327 20.528C27.7328 20.0632 27.4342 19.6764 27.0382 19.3707L26.7938 19.6873ZM27.566 20.6877C27.7449 21.0936 27.836 21.5463 27.836 22.049H28.236C28.236 21.497 28.1357 20.9884 27.932 20.5263L27.566 20.6877ZM27.836 22.049C27.836 22.5467 27.745 22.9972 27.566 23.4033L27.932 23.5647C28.1356 23.1028 28.236 22.5966 28.236 22.049H27.836ZM27.566 23.4033C27.3877 23.8076 27.128 24.1429 26.7855 24.4117L27.0325 24.7263C27.4273 24.4165 27.7276 24.0284 27.932 23.5647L27.566 23.4033ZM26.7858 24.4115C26.4526 24.672 26.0426 24.8423 25.549 24.9173L25.609 25.3127C26.1607 25.229 26.6374 25.0353 27.0322 24.7265L26.7858 24.4115ZM25.5497 24.9172C25.4285 24.9351 25.3073 24.9486 25.1862 24.9575L25.2158 25.3565C25.3467 25.3468 25.4775 25.3322 25.6083 25.3128L25.5497 24.9172ZM25.1857 24.9576C25.0683 24.9666 24.9638 24.971 24.872 24.971V25.371C24.9762 25.371 25.0911 25.366 25.2163 25.3564L25.1857 24.9576ZM24.872 24.971H22.009V25.371H24.872V24.971ZM21.809 25.171V29H22.209V25.171H21.809ZM22.009 28.8H20.98V29.2H22.009V28.8ZM22.009 24.391H24.844V23.991H22.009V24.391ZM24.844 24.391C24.935 24.391 25.0388 24.386 25.1546 24.3763L25.1214 23.9777C25.0132 23.9867 24.921 23.991 24.844 23.991V24.391ZM25.1546 24.3763C25.2751 24.3663 25.3934 24.3487 25.5095 24.3234L25.4245 23.9326C25.3259 23.954 25.2249 23.9691 25.1214 23.9777L25.1546 24.3763ZM25.5093 24.3235C25.8847 24.2423 26.2022 24.085 26.4523 23.8455L26.1757 23.5565C25.9872 23.737 25.74 23.8644 25.4247 23.9325L25.5093 24.3235ZM26.4508 23.8469C26.6975 23.6156 26.8805 23.3398 26.9985 23.0216L26.6235 22.8824C26.5269 23.1429 26.3785 23.3664 26.1772 23.5551L26.4508 23.8469ZM26.9975 23.0242C27.1185 22.7117 27.179 22.3862 27.179 22.049H26.779C26.779 22.3372 26.7275 22.6137 26.6245 22.8798L26.9975 23.0242ZM27.179 22.049C27.179 21.7118 27.1185 21.3863 26.9975 21.0738L26.6245 21.2182C26.7275 21.4843 26.779 21.7608 26.779 22.049H27.179ZM26.9989 21.0774C26.881 20.7546 26.6981 20.4759 26.4508 20.2441L26.1772 20.5359C26.3779 20.7241 26.5263 20.9494 26.6231 21.2146L26.9989 21.0774ZM26.4523 20.2455C26.2022 20.006 25.8847 19.8487 25.5093 19.7675L25.4247 20.1585C25.74 20.2266 25.9872 20.354 26.1757 20.5345L26.4523 20.2455ZM25.5095 19.7676C25.3907 19.7417 25.2696 19.7263 25.1463 19.7212L25.1297 20.1208C25.2304 20.125 25.3286 20.1376 25.4245 20.1584L25.5095 19.7676ZM25.1546 19.7217C25.0388 19.712 24.935 19.707 24.844 19.707V20.107C24.921 20.107 25.0132 20.1113 25.1214 20.1203L25.1546 19.7217ZM24.844 19.707H22.009V20.107H24.844V19.707ZM21.809 19.907V24.191H22.209V19.907H21.809ZM29.5692 29H29.3692V29.2H29.5692V29ZM29.5692 18.71V18.51H29.3692V18.71H29.5692ZM30.5982 18.71H30.7982V18.51H30.5982V18.71ZM30.5982 29V29.2H30.7982V29H30.5982ZM29.7692 29V18.71H29.3692V29H29.7692ZM29.5692 18.91H30.5982V18.51H29.5692V18.91ZM30.3982 18.71V29H30.7982V18.71H30.3982ZM30.5982 28.8H29.5692V29.2H30.5982V28.8ZM33.4248 28.902L33.3302 29.0782L33.3311 29.0787L33.4248 28.902ZM32.5638 28.083L32.7382 27.9851L32.5638 28.083ZM32.5218 25.92L32.3481 25.8208L32.3476 25.8217L32.5218 25.92ZM33.2008 25.199L33.0924 25.0309L33.0911 25.0318L33.2008 25.199ZM34.2018 24.772L34.1544 24.5777L34.1516 24.5784L34.2018 24.772ZM35.4688 24.527L35.4988 24.7247L35.5004 24.7245L35.4688 24.527ZM36.8338 24.338L36.8568 24.5367L36.8586 24.5365L36.8338 24.338ZM38.0098 24.177L38.1146 24.3473L37.9796 23.9793L38.0098 24.177ZM37.6458 24.401L37.4458 24.3973L37.439 24.7631L37.7506 24.5713L37.6458 24.401ZM34.3138 22.553L34.2049 22.3853L34.2039 22.3859L34.3138 22.553ZM33.5648 23.659L33.5084 23.8509L33.7015 23.9076L33.757 23.7142L33.5648 23.659ZM32.5638 23.365L32.37 23.3155L32.3223 23.5025L32.5074 23.5569L32.5638 23.365ZM33.6068 21.79L33.4905 21.6273L33.6068 21.79ZM37.4008 21.622L37.3053 21.7977L37.3073 21.7988L37.4008 21.622ZM38.4298 22.742L38.2447 22.8178L38.2458 22.8203L38.4298 22.742ZM38.6118 23.477L38.8107 23.4564L38.6118 23.477ZM38.6538 29V29.2H38.8538V29H38.6538ZM37.7368 29H37.5368V29.2H37.7368V29ZM37.7368 27.103L37.8144 26.9187L37.5368 26.8018V27.103H37.7368ZM38.0028 27.215L38.1888 27.2886L38.2608 27.1066L38.0804 27.0307L38.0028 27.215ZM36.8058 28.699L36.9123 28.8683L36.8058 28.699ZM37.1068 27.355L37.268 27.4734L37.2689 27.4722L37.1068 27.355ZM37.5338 26.333L37.3386 26.288L37.3367 26.2989L37.5338 26.333ZM37.6248 25.535L37.8248 25.5382V25.5382L37.6248 25.535ZM37.6318 24.877L37.7238 24.6994L37.4318 24.5482V24.877H37.6318ZM38.0238 25.08L38.0502 25.2782L38.6795 25.1943L38.1158 24.9024L38.0238 25.08ZM36.8828 25.22L36.8602 25.0213L36.86 25.0213L36.8828 25.22ZM35.6788 25.381L35.6486 25.1833L35.6482 25.1834L35.6788 25.381ZM34.6148 25.598L34.5636 25.4046L34.5604 25.4055L34.6148 25.598ZM33.9918 25.857L34.0861 26.0334L34.0893 26.0316L33.9918 25.857ZM33.4948 26.291L33.3323 26.1743L33.3304 26.1772L33.4948 26.291ZM33.4668 27.607L33.2895 27.6997L33.2912 27.7028L33.4668 27.607ZM33.9988 28.118L33.9014 28.2927L33.9028 28.2935L33.9988 28.118ZM34.8598 29.01C34.3137 29.01 33.8696 28.9114 33.5185 28.7253L33.3311 29.0787C33.7546 29.3032 34.2673 29.41 34.8598 29.41V29.01ZM33.5194 28.7258C33.1663 28.5363 32.9089 28.2889 32.7382 27.9851L32.3894 28.1809C32.6014 28.5584 32.9179 28.857 33.3302 29.0782L33.5194 28.7258ZM32.7382 27.9851C32.5641 27.6751 32.4768 27.338 32.4768 26.97H32.0768C32.0768 27.4047 32.1808 27.8095 32.3894 28.1809L32.7382 27.9851ZM32.4768 26.97C32.4768 26.5857 32.5531 26.2713 32.696 26.0183L32.3476 25.8217C32.1638 26.1473 32.0768 26.5329 32.0768 26.97H32.4768ZM32.6954 26.0192C32.8477 25.7528 33.0521 25.5357 33.3105 25.3662L33.0911 25.0318C32.7802 25.2356 32.5319 25.4992 32.3481 25.8208L32.6954 26.0192ZM33.3092 25.3671C33.5784 25.1934 33.8919 25.059 34.252 24.9656L34.1516 24.5784C33.7557 24.681 33.4019 24.8313 33.0924 25.0309L33.3092 25.3671ZM34.2492 24.9663C34.6252 24.8746 35.0416 24.794 35.4988 24.7247L35.4388 24.3293C34.972 24.4 34.5438 24.4827 34.1544 24.5777L34.2492 24.9663ZM35.5004 24.7245C35.9644 24.6503 36.4165 24.5877 36.8568 24.5367L36.8108 24.1393C36.3644 24.191 35.9066 24.2544 35.4372 24.3295L35.5004 24.7245ZM36.8586 24.5365C37.3079 24.4803 37.7017 24.4264 38.04 24.3747L37.9796 23.9793C37.6459 24.0303 37.2557 24.0837 36.809 24.1395L36.8586 24.5365ZM37.905 24.0067L37.541 24.2307L37.7506 24.5713L38.1146 24.3473L37.905 24.0067ZM37.8458 24.4047C37.8602 23.6366 37.7131 23.0258 37.3646 22.613L37.059 22.871C37.3171 23.1768 37.4594 23.6721 37.4458 24.3973L37.8458 24.4047ZM37.3646 22.613C37.0054 22.1875 36.4052 22.003 35.6298 22.003V22.403C36.3571 22.403 36.8115 22.5778 37.059 22.871L37.3646 22.613ZM35.6298 22.003C35.0813 22.003 34.6029 22.1268 34.2049 22.3853L34.4227 22.7207C34.7434 22.5125 35.1423 22.403 35.6298 22.403V22.003ZM34.2039 22.3859C33.8005 22.6513 33.5272 23.0651 33.3726 23.6038L33.757 23.7142C33.8917 23.2449 34.1177 22.9214 34.4237 22.7201L34.2039 22.3859ZM33.6212 23.4671L32.6202 23.1731L32.5074 23.5569L33.5084 23.8509L33.6212 23.4671ZM32.7576 23.4144C32.9197 22.7792 33.2422 22.2962 33.723 21.9527L33.4905 21.6273C32.926 22.0305 32.5532 22.5974 32.37 23.3155L32.7576 23.4144ZM33.723 21.9527C34.2029 21.61 34.8377 21.43 35.6438 21.43V21.03C34.7793 21.03 34.056 21.2233 33.4905 21.6273L33.723 21.9527ZM35.6438 21.43C36.3097 21.43 36.8606 21.556 37.3053 21.7977L37.4963 21.4463C36.9796 21.1654 36.3593 21.03 35.6438 21.03V21.43ZM37.3073 21.7988C37.7529 22.0344 38.0625 22.3729 38.2447 22.8178L38.6149 22.6662C38.3958 22.1311 38.0194 21.7229 37.4943 21.4452L37.3073 21.7988ZM38.2458 22.8203C38.3303 23.0189 38.3866 23.244 38.4129 23.4976L38.8107 23.4564C38.781 23.1686 38.716 22.9038 38.6138 22.6637L38.2458 22.8203ZM38.4129 23.4976C38.4401 23.7612 38.4538 24.0297 38.4538 24.303H38.8538C38.8538 24.0163 38.8395 23.7341 38.8107 23.4564L38.4129 23.4976ZM38.4538 24.303V29H38.8538V24.303H38.4538ZM38.6538 28.8H37.7368V29.2H38.6538V28.8ZM37.9368 29V27.103H37.5368V29H37.9368ZM37.6592 27.2873L37.9252 27.3993L38.0804 27.0307L37.8144 26.9187L37.6592 27.2873ZM37.8168 27.1414C37.5743 27.7543 37.2013 28.2138 36.6993 28.5297L36.9123 28.8683C37.4929 28.5029 37.918 27.973 38.1888 27.2886L37.8168 27.1414ZM36.6993 28.5297C36.1953 28.8469 35.5851 29.01 34.8598 29.01V29.41C35.6465 29.41 36.3337 29.2324 36.9123 28.8683L36.6993 28.5297ZM34.9788 28.521C35.4834 28.521 35.9341 28.4303 36.3254 28.2423L36.1522 27.8817C35.8249 28.039 35.4356 28.121 34.9788 28.121V28.521ZM36.3254 28.2423C36.712 28.0565 37.0278 27.8005 37.268 27.4734L36.9456 27.2366C36.7471 27.5069 36.4843 27.7222 36.1522 27.8817L36.3254 28.2423ZM37.2689 27.4722C37.5065 27.1435 37.6605 26.7743 37.7309 26.3671L37.3367 26.2989C37.2764 26.6477 37.1458 26.9598 36.9447 27.2378L37.2689 27.4722ZM37.7287 26.378C37.7883 26.1196 37.8199 25.8394 37.8248 25.5382L37.4248 25.5318C37.4203 25.8093 37.3913 26.0611 37.3389 26.288L37.7287 26.378ZM37.8248 25.5382C37.8294 25.244 37.8318 25.0233 37.8318 24.877H37.4318C37.4318 25.02 37.4295 25.238 37.4248 25.5318L37.8248 25.5382ZM37.5398 25.0546L37.9318 25.2576L38.1158 24.9024L37.7238 24.6994L37.5398 25.0546ZM37.9974 24.8818C37.6488 24.9282 37.2698 24.9747 36.8602 25.0213L36.9054 25.4187C37.3171 25.3719 37.6988 25.3251 38.0502 25.2782L37.9974 24.8818ZM36.86 25.0213C36.4515 25.0683 36.0477 25.1222 35.6486 25.1833L35.709 25.5787C36.1032 25.5184 36.5021 25.4651 36.9056 25.4187L36.86 25.0213ZM35.6482 25.1834C35.2506 25.2449 34.889 25.3185 34.5636 25.4047L34.666 25.7913C34.9753 25.7095 35.3229 25.6385 35.7094 25.5786L35.6482 25.1834ZM34.5604 25.4055C34.3303 25.4706 34.1082 25.563 33.8943 25.6824L34.0893 26.0316C34.2767 25.927 34.47 25.8468 34.6692 25.7905L34.5604 25.4055ZM33.8975 25.6806C33.6703 25.8022 33.4811 25.9671 33.3323 26.1744L33.6573 26.4076C33.7698 26.2509 33.912 26.1265 34.0861 26.0334L33.8975 25.6806ZM33.3304 26.1772C33.1765 26.3994 33.1058 26.6678 33.1058 26.97H33.5058C33.5058 26.7308 33.5611 26.5466 33.6592 26.4048L33.3304 26.1772ZM33.1058 26.97C33.1058 27.2234 33.1681 27.4674 33.2896 27.6997L33.644 27.5143C33.5508 27.336 33.5058 27.1552 33.5058 26.97H33.1058ZM33.2912 27.7028C33.4245 27.947 33.632 28.1424 33.9014 28.2927L34.0962 27.9433C33.8802 27.8229 33.7331 27.6776 33.6424 27.5112L33.2912 27.7028ZM33.9028 28.2935C34.1897 28.4504 34.5531 28.521 34.9788 28.521V28.121C34.5925 28.121 34.3026 28.0562 34.0948 27.9425L33.9028 28.2935ZM41.6801 28.699L41.5716 28.867L41.6801 28.699ZM40.4761 27.292L40.2937 27.374L40.2945 27.3757L40.4761 27.292ZM40.0561 25.22L39.8561 25.2176L39.8561 25.2224L40.0561 25.22ZM40.4901 23.134L40.6712 23.2189L40.6714 23.2183L40.4901 23.134ZM41.7011 21.734L41.8075 21.9033L41.8086 21.9027L41.7011 21.734ZM45.6141 21.79L45.5038 21.9568L45.5044 21.9572L45.6141 21.79ZM46.7831 23.323L46.844 23.5135L47.0352 23.4524L46.9734 23.2614L46.7831 23.323ZM45.7751 23.645L45.5889 23.718L45.6573 23.8926L45.836 23.8355L45.7751 23.645ZM44.9281 22.595L44.8181 22.7621L44.8205 22.7636L44.9281 22.595ZM42.2331 22.602L42.3469 22.7664L42.3483 22.7655L42.2331 22.602ZM41.4211 23.659L41.2349 23.586V23.586L41.4211 23.659ZM41.1481 25.22L40.9481 25.2184L40.9481 25.2221L41.1481 25.22ZM41.7781 27.404L41.6178 27.5236L41.6183 27.5242L41.7781 27.404ZM44.9211 27.873L45.03 28.0407L45.0305 28.0404L44.9211 27.873ZM45.7471 26.837L45.8041 26.6453L45.631 26.5938L45.5622 26.7608L45.7471 26.837ZM46.7831 27.145L46.9677 27.2219L47.0532 27.0167L46.8401 26.9533L46.7831 27.145ZM45.5511 28.685L45.6597 28.853L45.6607 28.8523L45.5511 28.685ZM43.6121 29.01C42.8817 29.01 42.2773 28.8467 41.7886 28.531L41.5716 28.867C42.1375 29.2326 42.8211 29.41 43.6121 29.41V29.01ZM41.7886 28.531C41.2947 28.2119 40.918 27.7729 40.6577 27.2083L40.2945 27.3757C40.5849 28.0058 41.0108 28.5047 41.5716 28.867L41.7886 28.531ZM40.6585 27.21C40.4009 26.6371 40.2651 25.9744 40.2561 25.2176L39.8561 25.2224C39.8657 26.0243 40.0099 26.7429 40.2937 27.374L40.6585 27.21ZM40.2561 25.2224C40.2651 24.4519 40.4055 23.7857 40.6712 23.2189L40.309 23.0491C40.0147 23.677 39.8657 24.4015 39.8561 25.2176L40.2561 25.2224ZM40.6714 23.2183C40.9363 22.6489 41.315 22.2128 41.8075 21.9033L41.5947 21.5647C41.0325 21.9179 40.6039 22.4151 40.3088 23.0497L40.6714 23.2183ZM41.8086 21.9027C42.2978 21.5909 42.8981 21.43 43.6191 21.43V21.03C42.8374 21.03 42.159 21.2051 41.5936 21.5653L41.8086 21.9027ZM43.6191 21.43C44.3505 21.43 44.976 21.6079 45.5038 21.9568L45.7244 21.6232C45.1229 21.2255 44.4184 21.03 43.6191 21.03V21.43ZM45.5044 21.9572C46.0356 22.3055 46.3968 22.7792 46.5928 23.3846L46.9734 23.2614C46.7494 22.5694 46.3313 22.0211 45.7238 21.6228L45.5044 21.9572ZM46.7222 23.1325L45.7142 23.4545L45.836 23.8355L46.844 23.5135L46.7222 23.1325ZM45.9613 23.572C45.7695 23.0824 45.4608 22.6979 45.0357 22.4264L44.8205 22.7636C45.17 22.9868 45.426 23.3022 45.5889 23.718L45.9613 23.572ZM45.0381 22.428C44.6202 22.1527 44.1426 22.017 43.6121 22.017V22.417C44.0709 22.417 44.4707 22.5333 44.8181 22.762L45.0381 22.428ZM43.6121 22.017C43.0258 22.017 42.5231 22.1528 42.1178 22.4385L42.3483 22.7655C42.6711 22.5379 43.0878 22.417 43.6121 22.417V22.017ZM42.1193 22.4376C41.7194 22.7144 41.4252 23.1002 41.2349 23.586L41.6073 23.732C41.7716 23.3125 42.0188 22.9936 42.3469 22.7664L42.1193 22.4376ZM41.2349 23.586C41.047 24.0657 40.9529 24.611 40.9481 25.2184L41.3481 25.2216C41.3526 24.653 41.4405 24.1577 41.6073 23.732L41.2349 23.586ZM40.9481 25.2221C40.9577 26.1564 41.1748 26.9296 41.6178 27.5236L41.9384 27.2844C41.5601 26.7771 41.3571 26.0943 41.3481 25.2179L40.9481 25.2221ZM41.6183 27.5242C42.0741 28.1302 42.7506 28.423 43.6121 28.423V28.023C42.8496 28.023 42.3034 27.7698 41.9379 27.2838L41.6183 27.5242ZM43.6121 28.423C44.1563 28.423 44.6323 28.299 45.03 28.0407L44.8122 27.7053C44.4912 27.9137 44.0945 28.023 43.6121 28.023V28.423ZM45.0305 28.0404C45.4325 27.7776 45.732 27.3983 45.932 26.9132L45.5622 26.7608C45.3889 27.181 45.1377 27.4924 44.8116 27.7056L45.0305 28.0404ZM45.6901 27.0287L46.7261 27.3367L46.8401 26.9533L45.8041 26.6453L45.6901 27.0287ZM46.5985 27.0681C46.3319 27.7079 45.9452 28.1877 45.4415 28.5177L45.6607 28.8523C46.2396 28.473 46.6743 27.9261 46.9677 27.2219L46.5985 27.0681ZM45.4425 28.517C44.9386 28.8429 44.3314 29.01 43.6121 29.01V29.41C44.3954 29.41 45.0809 29.2271 45.6597 28.853L45.4425 28.517ZM49.304 28.72L49.2 28.8908L49.2006 28.8912L49.304 28.72ZM48.051 27.341L48.2296 27.251L48.051 27.341ZM48.044 23.113L47.8643 23.0252V23.0252L48.044 23.113ZM49.283 21.72L49.179 21.5492L49.1783 21.5496L49.283 21.72ZM53.091 21.748L52.9814 21.9153L52.9824 21.916L53.091 21.748ZM54.288 23.218L54.4721 23.14L54.288 23.218ZM54.659 25.507V25.707H54.8538L54.8589 25.5123L54.659 25.507ZM53.609 25.507H53.409V25.707H53.609V25.507ZM53.609 25.143H53.809L53.8089 25.1392L53.609 25.143ZM52.972 22.924L52.8161 23.0493L52.8168 23.0502L52.972 22.924ZM49.339 22.966L49.1845 22.8389L49.1839 22.8397L49.339 22.966ZM49.339 27.439L49.1839 27.5653L49.1851 27.5668L49.339 27.439ZM52.594 27.852L52.6989 28.0223L52.6994 28.0219L52.594 27.852ZM53.553 26.767L53.6251 26.5805L53.4548 26.5146L53.3737 26.6783L53.553 26.767ZM54.512 27.138L54.6941 27.2207L54.7816 27.0279L54.5841 26.9515L54.512 27.138ZM53.189 28.671L53.2945 28.8409L53.2948 28.8407L53.189 28.671ZM48.331 25.507H48.131V25.707H48.331V25.507ZM48.331 24.646V24.446H48.131V24.646H48.331ZM54.106 24.646H54.306V24.446H54.106V24.646ZM54.106 25.507V25.707H54.306V25.507H54.106ZM51.222 29.01C50.5149 29.01 49.9126 28.8537 49.4073 28.5488L49.2006 28.8912C49.778 29.2397 50.4544 29.41 51.222 29.41V29.01ZM49.408 28.5492C48.9051 28.243 48.5124 27.8122 48.2296 27.251L47.8724 27.431C48.1869 28.0551 48.6295 28.5436 49.2 28.8908L49.408 28.5492ZM48.2296 27.251C47.9475 26.6913 47.803 26.028 47.803 25.255H47.403C47.403 26.078 47.5571 26.8053 47.8724 27.431L48.2296 27.251ZM47.803 25.255C47.803 24.4525 47.9458 23.7698 48.2237 23.2008L47.8643 23.0252C47.5542 23.6602 47.403 24.4055 47.403 25.255H47.803ZM48.2237 23.2008C48.5023 22.6303 48.8904 22.1958 49.3876 21.8904L49.1783 21.5496C48.6116 21.8976 48.1736 22.3917 47.8643 23.0252L48.2237 23.2008ZM49.387 21.8908C49.8876 21.5861 50.4827 21.43 51.18 21.43V21.03C50.4212 21.03 49.7517 21.2006 49.179 21.5492L49.387 21.8908ZM51.18 21.43C51.895 21.43 52.4922 21.595 52.9814 21.9153L53.2005 21.5807C52.635 21.2103 51.9583 21.03 51.18 21.03V21.43ZM52.9824 21.916C53.4726 22.2326 53.847 22.6895 54.1038 23.296L54.4721 23.14C54.1876 22.4679 53.764 21.9447 53.1995 21.58L52.9824 21.916ZM54.1038 23.296C54.3607 23.9028 54.4818 24.636 54.459 25.5017L54.8589 25.5123C54.8828 24.6047 54.7566 23.8119 54.4721 23.14L54.1038 23.296ZM54.659 25.307H53.609V25.707H54.659V25.307ZM53.809 25.507V25.143H53.409V25.507H53.809ZM53.8089 25.1392C53.7898 24.1367 53.5727 23.3458 53.1271 22.7978L52.8168 23.0502C53.1833 23.5009 53.3908 24.1893 53.409 25.1468L53.8089 25.1392ZM53.1279 22.7987C52.6806 22.2422 52.0292 21.975 51.208 21.975V22.375C51.9361 22.375 52.4607 22.6071 52.8161 23.0493L53.1279 22.7987ZM51.208 21.975C50.3487 21.975 49.6638 22.2565 49.1845 22.8389L49.4934 23.0931C49.8821 22.6208 50.4432 22.375 51.208 22.375V21.975ZM49.1839 22.8397C48.7152 23.4154 48.495 24.2182 48.495 25.22H48.895C48.895 24.2712 49.1041 23.5713 49.4941 23.0923L49.1839 22.8397ZM48.495 25.22C48.495 26.1999 48.7158 26.9904 49.1839 27.5653L49.4941 27.3127C49.1035 26.833 48.895 26.1441 48.895 25.22H48.495ZM49.1851 27.5668C49.6637 28.1431 50.3383 28.423 51.18 28.423V28.023C50.435 28.023 49.8823 27.7802 49.4928 27.3112L49.1851 27.5668ZM51.18 28.423C51.7528 28.423 52.2616 28.2918 52.6989 28.0223L52.489 27.6817C52.1237 27.9069 51.6899 28.023 51.18 28.023V28.423ZM52.6994 28.0219C53.1403 27.7483 53.4841 27.357 53.7322 26.8557L53.3737 26.6783C53.1552 27.1197 52.8597 27.4517 52.4885 27.6821L52.6994 28.0219ZM53.4808 26.9535L54.4398 27.3245L54.5841 26.9515L53.6251 26.5805L53.4808 26.9535ZM54.3299 27.0553C54.0466 27.6794 53.6312 28.1593 53.0831 28.5013L53.2948 28.8407C53.9134 28.4547 54.38 27.9126 54.6941 27.2207L54.3299 27.0553ZM53.0835 28.5011C52.5389 28.8393 51.9203 29.01 51.222 29.01V29.41C51.989 29.41 52.6817 29.2214 53.2945 28.8409L53.0835 28.5011ZM48.531 25.507V24.646H48.131V25.507H48.531ZM48.331 24.846H54.106V24.446H48.331V24.846ZM53.906 24.646V25.507H54.306V24.646H53.906ZM54.106 25.307H48.331V25.707H54.106V25.307ZM59.7432 28.902L59.6486 29.0782L59.6495 29.0787L59.7432 28.902ZM58.8822 28.083L59.0565 27.9851L58.8822 28.083ZM58.8402 25.92L58.6665 25.8208L58.666 25.8217L58.8402 25.92ZM59.5192 25.199L59.4107 25.0309L59.4095 25.0318L59.5192 25.199ZM60.5202 24.772L60.4728 24.5777L60.47 24.5784L60.5202 24.772ZM61.7872 24.527L61.8171 24.7247L61.8188 24.7245L61.7872 24.527ZM63.1522 24.338L63.1752 24.5367L63.177 24.5365L63.1522 24.338ZM64.3282 24.177L64.433 24.3473L64.298 23.9793L64.3282 24.177ZM63.9642 24.401L63.7642 24.3973L63.7573 24.7631L64.069 24.5713L63.9642 24.401ZM60.6322 22.553L60.5232 22.3853L60.5222 22.3859L60.6322 22.553ZM59.8832 23.659L59.8268 23.8509L60.0199 23.9076L60.0754 23.7142L59.8832 23.659ZM58.8822 23.365L58.6884 23.3155L58.6407 23.5025L58.8258 23.5569L58.8822 23.365ZM59.9252 21.79L59.8089 21.6273L59.9252 21.79ZM63.7192 21.622L63.6236 21.7977L63.6257 21.7988L63.7192 21.622ZM64.7482 22.742L64.5631 22.8178L64.5641 22.8203L64.7482 22.742ZM64.9302 23.477L65.1291 23.4564L64.9302 23.477ZM64.9722 29V29.2H65.1722V29H64.9722ZM64.0552 29H63.8552V29.2H64.0552V29ZM64.0552 27.103L64.1328 26.9187L63.8552 26.8018V27.103H64.0552ZM64.3212 27.215L64.5071 27.2886L64.5791 27.1066L64.3988 27.0307L64.3212 27.215ZM63.1242 28.699L63.2307 28.8683L63.1242 28.699ZM63.4252 27.355L63.5864 27.4734L63.5872 27.4722L63.4252 27.355ZM63.8522 26.333L63.657 26.288L63.6551 26.2989L63.8522 26.333ZM63.9432 25.535L64.1431 25.5382V25.5382L63.9432 25.535ZM63.9502 24.877L64.0421 24.6994L63.7502 24.5482V24.877H63.9502ZM64.3422 25.08L64.3686 25.2782L64.9979 25.1943L64.4341 24.9024L64.3422 25.08ZM63.2012 25.22L63.1786 25.0213L63.1783 25.0213L63.2012 25.22ZM61.9972 25.381L61.9669 25.1833L61.9666 25.1834L61.9972 25.381ZM60.9332 25.598L60.882 25.4046L60.8788 25.4055L60.9332 25.598ZM60.3102 25.857L60.4045 26.0334L60.4076 26.0316L60.3102 25.857ZM59.8132 26.291L59.6507 26.1743L59.6487 26.1772L59.8132 26.291ZM59.7852 27.607L59.6079 27.6997L59.6096 27.7028L59.7852 27.607ZM60.3172 28.118L60.2197 28.2927L60.2212 28.2935L60.3172 28.118ZM61.1782 29.01C60.632 29.01 60.188 28.9114 59.8368 28.7253L59.6495 29.0787C60.073 29.3032 60.5856 29.41 61.1782 29.41V29.01ZM59.8377 28.7258C59.4847 28.5363 59.2272 28.2889 59.0565 27.9851L58.7078 28.1809C58.9198 28.5584 59.2363 28.857 59.6486 29.0782L59.8377 28.7258ZM59.0565 27.9851C58.8825 27.6751 58.7952 27.338 58.7952 26.97H58.3952C58.3952 27.4047 58.4992 27.8095 58.7078 28.1809L59.0565 27.9851ZM58.7952 26.97C58.7952 26.5857 58.8715 26.2713 59.0143 26.0183L58.666 25.8217C58.4822 26.1473 58.3952 26.5329 58.3952 26.97H58.7952ZM59.0138 26.0192C59.1661 25.7528 59.3704 25.5357 59.6288 25.3662L59.4095 25.0318C59.0986 25.2356 58.8503 25.4992 58.6665 25.8208L59.0138 26.0192ZM59.6276 25.3671C59.8968 25.1934 60.2103 25.059 60.5704 24.9656L60.47 24.5784C60.074 24.681 59.7202 24.8313 59.4107 25.0309L59.6276 25.3671ZM60.5675 24.9663C60.9435 24.8746 61.3599 24.794 61.8171 24.7247L61.7572 24.3293C61.2904 24.4 60.8621 24.4827 60.4728 24.5777L60.5675 24.9663ZM61.8188 24.7245C62.2827 24.6503 62.7349 24.5877 63.1752 24.5367L63.1292 24.1393C62.6828 24.191 62.2249 24.2544 61.7556 24.3295L61.8188 24.7245ZM63.177 24.5365C63.6262 24.4803 64.0201 24.4264 64.3584 24.3747L64.298 23.9793C63.9642 24.0303 63.5741 24.0837 63.1273 24.1395L63.177 24.5365ZM64.2233 24.0067L63.8593 24.2307L64.069 24.5713L64.433 24.3473L64.2233 24.0067ZM64.1641 24.4047C64.1785 23.6366 64.0315 23.0258 63.683 22.613L63.3773 22.871C63.6355 23.1768 63.7778 23.6721 63.7642 24.3973L64.1641 24.4047ZM63.683 22.613C63.3238 22.1875 62.7236 22.003 61.9482 22.003V22.403C62.6754 22.403 63.1298 22.5778 63.3773 22.871L63.683 22.613ZM61.9482 22.003C61.3997 22.003 60.9212 22.1268 60.5232 22.3853L60.7411 22.7207C61.0618 22.5125 61.4607 22.403 61.9482 22.403V22.003ZM60.5222 22.3859C60.1189 22.6513 59.8456 23.0651 59.6909 23.6038L60.0754 23.7142C60.2101 23.2449 60.4361 22.9214 60.7421 22.7201L60.5222 22.3859ZM59.9395 23.4671L58.9385 23.1731L58.8258 23.5569L59.8268 23.8509L59.9395 23.4671ZM59.0759 23.4144C59.238 22.7792 59.5606 22.2962 60.0414 21.9527L59.8089 21.6273C59.2444 22.0305 58.8716 22.5974 58.6884 23.3155L59.0759 23.4144ZM60.0414 21.9527C60.5212 21.61 61.156 21.43 61.9622 21.43V21.03C61.0976 21.03 60.3744 21.2233 59.8089 21.6273L60.0414 21.9527ZM61.9622 21.43C62.628 21.43 63.179 21.556 63.6236 21.7977L63.8147 21.4463C63.298 21.1654 62.6776 21.03 61.9622 21.03V21.43ZM63.6257 21.7988C64.0712 22.0344 64.3809 22.3729 64.5631 22.8178L64.9332 22.6662C64.7141 22.1311 64.3377 21.7229 63.8127 21.4452L63.6257 21.7988ZM64.5641 22.8203C64.6486 23.0189 64.705 23.244 64.7312 23.4976L65.1291 23.4564C65.0993 23.1686 65.0344 22.9038 64.9322 22.6637L64.5641 22.8203ZM64.7312 23.4976C64.7585 23.7612 64.7722 24.0297 64.7722 24.303H65.1722C65.1722 24.0163 65.1578 23.7341 65.1291 23.4564L64.7312 23.4976ZM64.7722 24.303V29H65.1722V24.303H64.7722ZM64.9722 28.8H64.0552V29.2H64.9722V28.8ZM64.2552 29V27.103H63.8552V29H64.2552ZM63.9775 27.2873L64.2435 27.3993L64.3988 27.0307L64.1328 26.9187L63.9775 27.2873ZM64.1352 27.1414C63.8927 27.7543 63.5197 28.2138 63.0176 28.5297L63.2307 28.8683C63.8113 28.5029 64.2363 27.973 64.5071 27.2886L64.1352 27.1414ZM63.0176 28.5297C62.5136 28.8469 61.9034 29.01 61.1782 29.01V29.41C61.9649 29.41 62.652 29.2324 63.2307 28.8683L63.0176 28.5297ZM61.2972 28.521C61.8017 28.521 62.2524 28.4303 62.6438 28.2423L62.4705 27.8817C62.1432 28.039 61.7539 28.121 61.2972 28.121V28.521ZM62.6438 28.2423C63.0304 28.0565 63.3462 27.8005 63.5864 27.4734L63.264 27.2366C63.0655 27.5069 62.8026 27.7222 62.4705 27.8817L62.6438 28.2423ZM63.5872 27.4722C63.8249 27.1435 63.9788 26.7743 64.0492 26.3671L63.6551 26.2989C63.5948 26.6477 63.4641 26.9598 63.2631 27.2378L63.5872 27.4722ZM64.047 26.378C64.1067 26.1196 64.1383 25.8394 64.1431 25.5382L63.7432 25.5318C63.7387 25.8093 63.7097 26.0611 63.6573 26.288L64.047 26.378ZM64.1431 25.5382C64.1478 25.244 64.1502 25.0233 64.1502 24.877H63.7502C63.7502 25.02 63.7478 25.238 63.7432 25.5318L64.1431 25.5382ZM63.8582 25.0546L64.2502 25.2576L64.4341 24.9024L64.0421 24.6994L63.8582 25.0546ZM64.3157 24.8818C63.9672 24.9282 63.5882 24.9747 63.1786 25.0213L63.2237 25.4187C63.6355 25.3719 64.0171 25.3251 64.3686 25.2782L64.3157 24.8818ZM63.1783 25.0213C62.7699 25.0683 62.3661 25.1222 61.9669 25.1833L62.0274 25.5787C62.4216 25.5184 62.8204 25.4651 63.224 25.4187L63.1783 25.0213ZM61.9666 25.1834C61.569 25.2449 61.2073 25.3185 60.882 25.4047L60.9843 25.7913C61.2937 25.7095 61.6413 25.6385 62.0277 25.5786L61.9666 25.1834ZM60.8788 25.4055C60.6486 25.4706 60.4266 25.563 60.2127 25.6824L60.4076 26.0316C60.5951 25.927 60.7883 25.8468 60.9875 25.7905L60.8788 25.4055ZM60.2158 25.6806C59.9886 25.8022 59.7995 25.9671 59.6507 26.1744L59.9756 26.4076C60.0882 26.2509 60.2304 26.1265 60.4045 26.0334L60.2158 25.6806ZM59.6487 26.1772C59.4948 26.3994 59.4242 26.6678 59.4242 26.97H59.8242C59.8242 26.7308 59.8795 26.5466 59.9776 26.4048L59.6487 26.1772ZM59.4242 26.97C59.4242 27.2234 59.4865 27.4674 59.6079 27.6997L59.9624 27.5143C59.8691 27.336 59.8242 27.1552 59.8242 26.97H59.4242ZM59.6096 27.7028C59.7428 27.947 59.9504 28.1424 60.2197 28.2927L60.4146 27.9433C60.1986 27.8229 60.0515 27.6776 59.9607 27.5112L59.6096 27.7028ZM60.2212 28.2935C60.508 28.4504 60.8714 28.521 61.2972 28.521V28.121C60.9109 28.121 60.6209 28.0562 60.4132 27.9425L60.2212 28.2935ZM71.2282 28.685L71.1094 28.8459L71.1105 28.8467L71.2282 28.685ZM70.1362 27.25L69.951 27.3255L69.9512 27.326L70.1362 27.25ZM70.1362 23.169L69.9517 23.0918L69.9514 23.0925L70.1362 23.169ZM71.2422 21.748L71.3581 21.911L71.2422 21.748ZM74.8122 21.755L74.9277 21.5917H74.9277L74.8122 21.755ZM75.9462 23.183L75.7627 23.2626L75.7633 23.2638L75.9462 23.183ZM75.9462 27.25L75.7633 27.1692L75.9462 27.25ZM74.7982 28.685L74.913 28.8488L74.914 28.8481L74.7982 28.685ZM69.5902 29H69.3902V29.2H69.5902V29ZM69.5902 18.92V18.72H69.3902V18.92H69.5902ZM70.6262 18.92H70.8262V18.72H70.6262V18.92ZM70.6262 23.309V23.509H70.8262V23.309H70.6262ZM70.5142 23.309V23.109H70.3142V23.309H70.5142ZM70.5142 29V29.2H70.7142V29H70.5142ZM74.2032 27.852L74.3242 28.0112L74.2032 27.852ZM74.9872 26.767L74.8005 26.6953L74.8001 26.6964L74.9872 26.767ZM74.9942 23.673L75.1813 23.6024L74.9942 23.673ZM74.2032 22.588L74.0822 22.7472L74.0832 22.748L74.2032 22.588ZM71.5502 22.574L71.4319 22.4127L71.4309 22.4135L71.5502 22.574ZM70.7732 23.645L70.9601 23.7163L70.9603 23.7156L70.7732 23.645ZM70.7732 26.781L70.5858 26.851L70.5861 26.8516L70.7732 26.781ZM71.5572 27.859L71.4375 28.0193L71.5572 27.859ZM72.9922 29.01C72.3318 29.01 71.7868 28.8444 71.3459 28.5233L71.1105 28.8467C71.6309 29.2256 72.262 29.41 72.9922 29.41V29.01ZM71.3469 28.5241C70.8983 28.193 70.5559 27.7453 70.3212 27.174L69.9512 27.326C70.2111 27.9587 70.5967 28.4676 71.1094 28.8459L71.3469 28.5241ZM70.3214 27.1745C70.0852 26.5951 69.9652 25.9422 69.9652 25.213H69.5652C69.5652 25.9865 69.6926 26.6916 69.951 27.3255L70.3214 27.1745ZM69.9652 25.213C69.9652 24.4692 70.0854 23.8146 70.321 23.2455L69.9514 23.0925C69.6924 23.7181 69.5652 24.4262 69.5652 25.213H69.9652ZM70.3207 23.2462C70.5597 22.6752 70.9061 22.2326 71.3581 21.911L71.1262 21.585C70.6076 21.954 70.2167 22.4588 69.9517 23.0918L70.3207 23.2462ZM71.3581 21.911C71.8035 21.594 72.3583 21.43 73.0342 21.43V21.03C72.2914 21.03 71.6515 21.2113 71.1262 21.585L71.3581 21.911ZM73.0342 21.43C73.6895 21.43 74.2404 21.5954 74.6967 21.9183L74.9277 21.5917C74.3947 21.2146 73.7602 21.03 73.0342 21.03V21.43ZM74.6967 21.9183C75.159 22.2454 75.5147 22.6913 75.7627 23.2626L76.1296 23.1034C75.855 22.4707 75.4547 21.9646 74.9277 21.5917L74.6967 21.9183ZM75.7633 23.2638C76.0165 23.837 76.1452 24.4856 76.1452 25.213H76.5452C76.5452 24.4378 76.4079 23.733 76.1291 23.1022L75.7633 23.2638ZM76.1452 25.213C76.1452 25.9453 76.0164 26.5961 75.7633 27.1692L76.1291 27.3308C76.4079 26.6999 76.5452 25.9927 76.5452 25.213H76.1452ZM75.7633 27.1692C75.5107 27.7408 75.1501 28.1897 74.6824 28.5219L74.914 28.8481C75.4449 28.471 75.8497 27.9632 76.1291 27.3308L75.7633 27.1692ZM74.6834 28.5212C74.2227 28.8441 73.6624 29.01 72.9922 29.01V29.41C73.7313 29.41 74.375 29.2259 74.913 28.8488L74.6834 28.5212ZM69.7902 29V18.92H69.3902V29H69.7902ZM69.5902 19.12H70.6262V18.72H69.5902V19.12ZM70.4262 18.92V23.309H70.8262V18.92H70.4262ZM70.6262 23.109H70.5142V23.509H70.6262V23.109ZM70.3142 23.309V29H70.7142V23.309H70.3142ZM70.5142 28.8H69.5902V29.2H70.5142V28.8ZM72.8872 28.451C73.4492 28.451 73.9329 28.3086 74.3242 28.0112L74.0822 27.6928C73.7735 27.9274 73.3798 28.051 72.8872 28.051V28.451ZM74.3242 28.0112C74.7074 27.72 74.9899 27.3261 75.1743 26.8376L74.8001 26.6964C74.6391 27.1226 74.399 27.452 74.0822 27.6928L74.3242 28.0112ZM75.1739 26.8387C75.3613 26.3504 75.4532 25.8076 75.4532 25.213H75.0532C75.0532 25.7664 74.9677 26.2596 74.8005 26.6953L75.1739 26.8387ZM75.4532 25.213C75.4532 24.6234 75.3638 24.0857 75.1813 23.6024L74.8071 23.7436C74.9699 24.175 75.0532 24.6639 75.0532 25.213H75.4532ZM75.1813 23.6024C74.9966 23.1132 74.7113 22.7191 74.3232 22.428L74.0832 22.748C74.4044 22.9889 74.6464 23.3181 74.8071 23.7436L75.1813 23.6024ZM74.3242 22.4288C73.932 22.1307 73.4409 21.989 72.8662 21.989V22.389C73.3741 22.389 73.7744 22.5133 74.0822 22.7472L74.3242 22.4288ZM72.8662 21.989C72.3057 21.989 71.8231 22.1259 71.4319 22.4127L71.6685 22.7353C71.9773 22.5088 72.3721 22.389 72.8662 22.389V21.989ZM71.4309 22.4135C71.0508 22.696 70.7704 23.0862 70.5861 23.5744L70.9603 23.7156C71.1213 23.2891 71.3589 22.9653 71.6695 22.7345L71.4309 22.4135ZM70.5863 23.5737C70.4033 24.0536 70.3142 24.6012 70.3142 25.213H70.7142C70.7142 24.6394 70.7978 24.1417 70.9601 23.7163L70.5863 23.5737ZM70.3142 25.213C70.3142 25.816 70.4034 26.3629 70.5858 26.851L70.9605 26.711C70.7976 26.2751 70.7142 25.7767 70.7142 25.213H70.3142ZM70.5861 26.8516C70.7706 27.3403 71.0534 27.7324 71.4375 28.0193L71.6768 27.6987C71.361 27.4629 71.1211 27.1364 70.9603 26.7104L70.5861 26.8516ZM71.4375 28.0193C71.8294 28.3118 72.3175 28.451 72.8872 28.451V28.051C72.3836 28.051 71.985 27.9288 71.6768 27.6987L71.4375 28.0193ZM78.0223 20.005H77.8223V20.205H78.0223V20.005ZM78.0223 18.85V18.65H77.8223V18.85H78.0223ZM79.0513 18.85H79.2513V18.65H79.0513V18.85ZM79.0513 20.005V20.205H79.2513V20.005H79.0513ZM78.0223 29H77.8223V29.2H78.0223V29ZM78.0223 21.44V21.24H77.8223V21.44H78.0223ZM79.0513 21.44H79.2513V21.24H79.0513V21.44ZM79.0513 29V29.2H79.2513V29H79.0513ZM78.2223 20.005V18.85H77.8223V20.005H78.2223ZM78.0223 19.05H79.0513V18.65H78.0223V19.05ZM78.8513 18.85V20.005H79.2513V18.85H78.8513ZM79.0513 19.805H78.0223V20.205H79.0513V19.805ZM78.2223 29V21.44H77.8223V29H78.2223ZM78.0223 21.64H79.0513V21.24H78.0223V21.64ZM78.8513 21.44V29H79.2513V21.44H78.8513ZM79.0513 28.8H78.0223V29.2H79.0513V28.8ZM82.2769 28.685L82.1611 28.8481L82.1621 28.8488L82.2769 28.685ZM81.1289 27.25L81.3119 27.1692L81.1289 27.25ZM81.1219 23.183L80.939 23.1022L80.9385 23.1034L81.1219 23.183ZM82.2629 21.755L82.1474 21.5917L82.2629 21.755ZM85.8329 21.748L85.717 21.911L85.8329 21.748ZM86.9319 23.169L86.7469 23.245L86.7477 23.2467L86.9319 23.169ZM86.9389 27.25L87.1239 27.326L87.1241 27.3255L86.9389 27.25ZM85.8469 28.685L85.9647 28.8467L85.9657 28.8459L85.8469 28.685ZM85.5179 27.859L85.6376 28.0193L85.5179 27.859ZM86.3019 26.781L86.489 26.8516L86.4893 26.851L86.3019 26.781ZM86.3019 23.645L86.1148 23.7156L86.1151 23.7163L86.3019 23.645ZM85.5179 22.574L85.3986 22.7345L85.3997 22.7353L85.5179 22.574ZM82.8649 22.588L82.7449 22.428L82.8649 22.588ZM82.0739 23.673L81.8868 23.6024L81.8862 23.604L82.0739 23.673ZM82.0809 26.767L81.8936 26.837L81.8945 26.8393L82.0809 26.767ZM82.8719 27.852L82.7509 28.0112L82.8719 27.852ZM86.5609 29H86.3609V29.2H86.5609V29ZM86.5609 23.309H86.7609V23.109H86.5609V23.309ZM86.4489 23.309H86.2489V23.509H86.4489V23.309ZM86.4489 18.92V18.72H86.2489V18.92H86.4489ZM87.4849 18.92H87.6849V18.72H87.4849V18.92ZM87.4849 29V29.2H87.6849V29H87.4849ZM84.0829 29.01C83.4127 29.01 82.8524 28.8441 82.3917 28.5212L82.1621 28.8488C82.7001 29.2259 83.3438 29.41 84.0829 29.41V29.01ZM82.3927 28.5219C81.925 28.1897 81.5644 27.7408 81.3119 27.1692L80.946 27.3308C81.2254 27.9632 81.6302 28.471 82.1611 28.8481L82.3927 28.5219ZM81.3119 27.1692C81.0587 26.5961 80.9299 25.9453 80.9299 25.213H80.5299C80.5299 25.9927 80.6672 26.6999 80.946 27.3308L81.3119 27.1692ZM80.9299 25.213C80.9299 24.4851 81.0564 23.8361 81.3054 23.2626L80.9385 23.1034C80.6647 23.7339 80.5299 24.4382 80.5299 25.213H80.9299ZM81.3049 23.2638C81.5575 22.692 81.9158 22.2456 82.3784 21.9183L82.1474 21.5917C81.6207 21.9644 81.2183 22.47 80.939 23.1022L81.3049 23.2638ZM82.3784 21.9183C82.8347 21.5954 83.3856 21.43 84.0409 21.43V21.03C83.3149 21.03 82.6804 21.2146 82.1474 21.5917L82.3784 21.9183ZM84.0409 21.43C84.7168 21.43 85.2716 21.594 85.717 21.911L85.9489 21.585C85.4236 21.2113 84.7837 21.03 84.0409 21.03V21.43ZM85.717 21.911C86.1687 22.2324 86.5126 22.6746 86.7469 23.245L87.1169 23.093C86.8566 22.4594 86.4678 21.9543 85.9489 21.585L85.717 21.911ZM86.7477 23.2467C86.9876 23.8154 87.1099 24.4696 87.1099 25.213H87.5099C87.5099 24.4257 87.3803 23.7172 87.1162 23.0913L86.7477 23.2467ZM87.1099 25.213C87.1099 25.9422 86.99 26.5951 86.7537 27.1745L87.1241 27.3255C87.3826 26.6916 87.5099 25.9865 87.5099 25.213H87.1099ZM86.7539 27.174C86.5192 27.7453 86.1768 28.193 85.7282 28.5241L85.9657 28.8459C86.4784 28.4676 86.864 27.9587 87.1239 27.326L86.7539 27.174ZM85.7292 28.5233C85.2883 28.8444 84.7434 29.01 84.0829 29.01V29.41C84.8132 29.41 85.4442 29.2256 85.9647 28.8467L85.7292 28.5233ZM84.1879 28.451C84.7577 28.451 85.2458 28.3118 85.6376 28.0193L85.3983 27.6987C85.0901 27.9288 84.6915 28.051 84.1879 28.051V28.451ZM85.6376 28.0193C86.0217 27.7324 86.3045 27.3403 86.489 26.8516L86.1148 26.7104C85.954 27.1364 85.7141 27.4629 85.3983 27.6987L85.6376 28.0193ZM86.4893 26.851C86.6717 26.3629 86.7609 25.816 86.7609 25.213H86.3609C86.3609 25.7767 86.2775 26.2751 86.1146 26.711L86.4893 26.851ZM86.7609 25.213C86.7609 24.6012 86.6718 24.0536 86.4888 23.5737L86.1151 23.7163C86.2773 24.1417 86.3609 24.6394 86.3609 25.213H86.7609ZM86.489 23.5744C86.3045 23.0855 86.0213 22.6951 85.6362 22.4127L85.3997 22.7353C85.7146 22.9662 85.954 23.2898 86.1148 23.7156L86.489 23.5744ZM85.6372 22.4135C85.2502 22.1258 84.7693 21.989 84.2089 21.989V22.389C84.7032 22.389 85.095 22.5088 85.3986 22.7345L85.6372 22.4135ZM84.2089 21.989C83.6341 21.989 83.1413 22.1307 82.7449 22.428L82.9849 22.748C83.2979 22.5133 83.7011 22.389 84.2089 22.389V21.989ZM82.7449 22.428C82.3568 22.7191 82.0715 23.1132 81.8868 23.6024L82.261 23.7436C82.4217 23.3181 82.6637 22.9889 82.9849 22.748L82.7449 22.428ZM81.8862 23.604C81.7088 24.0868 81.6219 24.624 81.6219 25.213H82.0219C82.0219 24.6633 82.103 24.1738 82.2617 23.742L81.8862 23.604ZM81.6219 25.213C81.6219 25.8071 81.7113 26.3493 81.8936 26.837L82.2683 26.697C82.1052 26.2607 82.0219 25.7669 82.0219 25.213H81.6219ZM81.8945 26.8393C82.0836 27.327 82.3682 27.7203 82.7509 28.0112L82.9929 27.6928C82.6757 27.4517 82.433 27.1217 82.2674 26.6947L81.8945 26.8393ZM82.7509 28.0112C83.1422 28.3086 83.6259 28.451 84.1879 28.451V28.051C83.6953 28.051 83.3016 27.9274 82.9929 27.6928L82.7509 28.0112ZM86.7609 29V23.309H86.3609V29H86.7609ZM86.5609 23.109H86.4489V23.509H86.5609V23.109ZM86.6489 23.309V18.92H86.2489V23.309H86.6489ZM86.4489 19.12H87.4849V18.72H86.4489V19.12ZM87.2849 18.92V29H87.6849V18.92H87.2849ZM87.4849 28.8H86.5609V29.2H87.4849V28.8Z" fill="#220970" mask="url(#path-2-outside-1_23_183)"/>
</svg>
